<?xml version="1.0" standalone="no"?>
<svg viewBox="0 0 200 200" xmlns="http://www.w3.org/2000/svg">
  <path fill="#F9AC46" d="M48.2,-71.6C63.1,-65.4,76.4,-53.2,84.1,-38C91.7,-22.7,93.6,-4.5,84.8,7.7C76.1,19.8,56.5,25.9,44.5,37C32.5,48,28,63.9,18.2,70.9C8.4,77.8,-6.6,75.7,-21.1,71.5C-35.6,67.4,-49.5,61.2,-62.1,51.2C-74.6,41.3,-85.7,27.6,-83.2,14.8C-80.6,1.9,-64.5,-10.1,-55.6,-23.6C-46.7,-37.2,-45,-52.4,-37,-61.8C-28.9,-71.1,-14.5,-74.7,1.1,-76.4C16.6,-78,33.2,-77.8,48.2,-71.6Z" transform="translate(100 100)" />
</svg>
